<svg width="30" height="31" viewBox="0 0 30 31" fill="none" xmlns="http://www.w3.org/2000/svg">
<g filter="url(#filter0_d_6_459)">
<path d="M18 22.4899H12C6.57 22.4899 4.25 20.288 4.25 15.1345V9.44004C4.25 4.28653 6.57 2.08466 12 2.08466H18C23.43 2.08466 25.75 4.28653 25.75 9.44004V15.1345C25.75 20.288 23.43 22.4899 18 22.4899ZM12 3.50828C7.39 3.50828 5.75 5.06477 5.75 9.44004V15.1345C5.75 19.5098 7.39 21.0663 12 21.0663H18C22.61 21.0663 24.25 19.5098 24.25 15.1345V9.44004C24.25 5.06477 22.61 3.50828 18 3.50828H12Z" fill="#9197B3"/>
<path d="M15.0006 13.312C14.8706 13.312 14.7406 13.2836 14.6206 13.2171L9.32061 10.3129C8.96061 10.1136 8.84059 9.67704 9.05059 9.34486C9.26059 9.00319 9.72061 8.8893 10.0706 9.08861L14.9906 11.7935L19.8806 9.10759C20.2406 8.90829 20.7006 9.03167 20.9006 9.36384C21.1006 9.69602 20.9806 10.1421 20.6306 10.3319L15.3706 13.2171C15.2606 13.2741 15.1306 13.312 15.0006 13.312Z" fill="#9197B3"/>
<path d="M15 18.4754C14.59 18.4754 14.25 18.1527 14.25 17.7636V12.6006C14.25 12.2115 14.59 11.8888 15 11.8888C15.41 11.8888 15.75 12.2115 15.75 12.6006V17.7636C15.75 18.1527 15.41 18.4754 15 18.4754Z" fill="#9197B3"/>
<path d="M15.0002 18.6934C14.4202 18.6934 13.8503 18.57 13.3903 18.3328L10.1902 16.6434C9.23025 16.1404 8.49023 14.9351 8.49023 13.8911V10.6737C8.49023 9.63919 9.24025 8.43385 10.1902 7.92135L13.3903 6.23198C14.3103 5.74795 15.6902 5.74795 16.6102 6.23198L19.8102 7.92135C20.7702 8.42436 21.5103 9.6297 21.5103 10.6737V13.8911C21.5103 14.9256 20.7602 16.1309 19.8102 16.6434L16.6102 18.3328C16.1502 18.5795 15.5802 18.6934 15.0002 18.6934ZM15.0002 7.30444C14.6702 7.30444 14.3502 7.36139 14.1202 7.48477L10.9203 9.17413C10.4303 9.43039 9.99023 10.1517 9.99023 10.6737V13.8911C9.99023 14.4226 10.4303 15.1344 10.9203 15.3906L14.1202 17.08C14.5802 17.3267 15.4202 17.3267 15.8802 17.08L19.0802 15.3906C19.5702 15.1344 20.0103 14.4131 20.0103 13.8911V10.6737C20.0103 10.1422 19.5702 9.43039 19.0802 9.17413L15.8802 7.48477C15.6502 7.36139 15.3302 7.30444 15.0002 7.30444Z" fill="#9197B3"/>
</g>
<defs>
<filter id="filter0_d_6_459" x="-1" y="0.898315" width="32" height="30.778" filterUnits="userSpaceOnUse" color-interpolation-filters="sRGB">
<feFlood flood-opacity="0" result="BackgroundImageFix"/>
<feColorMatrix in="SourceAlpha" type="matrix" values="0 0 0 0 0 0 0 0 0 0 0 0 0 0 0 0 0 0 127 0" result="hardAlpha"/>
<feOffset dy="4"/>
<feGaussianBlur stdDeviation="2"/>
<feComposite in2="hardAlpha" operator="out"/>
<feColorMatrix type="matrix" values="0 0 0 0 0 0 0 0 0 0 0 0 0 0 0 0 0 0 0.25 0"/>
<feBlend mode="normal" in2="BackgroundImageFix" result="effect1_dropShadow_6_459"/>
<feBlend mode="normal" in="SourceGraphic" in2="effect1_dropShadow_6_459" result="shape"/>
</filter>
</defs>
</svg>
