<svg width="42" height="43" viewBox="0 0 42 43" fill="none" xmlns="http://www.w3.org/2000/svg">
<path d="M16.0302 19.0696C15.8552 19.0521 15.6452 19.0521 15.4527 19.0696C11.2877 18.9296 7.98022 15.5171 7.98022 11.3171C7.98022 7.02956 11.4452 3.54706 15.7502 3.54706C20.0377 3.54706 23.5202 7.02956 23.5202 11.3171C23.5027 15.5171 20.1952 18.9296 16.0302 19.0696Z" stroke="white" stroke-width="2.625" stroke-linecap="round" stroke-linejoin="round"/>
<path d="M28.7172 7.04633C32.1122 7.04633 34.8422 9.79383 34.8422 13.1713C34.8422 16.4788 32.2172 19.1738 28.9447 19.2963C28.8047 19.2788 28.6472 19.2788 28.4897 19.2963" stroke="white" stroke-width="2.625" stroke-linecap="round" stroke-linejoin="round"/>
<path d="M7.2805 25.5263C3.0455 28.3613 3.0455 32.9813 7.2805 35.7988C12.093 39.0188 19.9855 39.0188 24.798 35.7988C29.033 32.9638 29.033 28.3438 24.798 25.5263C20.003 22.3238 12.1105 22.3238 7.2805 25.5263Z" stroke="white" stroke-width="2.625" stroke-linecap="round" stroke-linejoin="round"/>
<path d="M32.0947 35.0471C33.3547 34.7846 34.5447 34.2771 35.5247 33.5246C38.2547 31.4771 38.2547 28.0996 35.5247 26.0521C34.5622 25.3171 33.3897 24.8271 32.1472 24.5471" stroke="white" stroke-width="2.625" stroke-linecap="round" stroke-linejoin="round"/>
</svg>
