<svg width="24" height="24" viewBox="0 0 24 24" fill="none" xmlns="http://www.w3.org/2000/svg">
<path d="M15.0006 21.9962H9.00063C7.68063 21.9962 6.58063 21.8729 5.65063 21.6071C5.31063 21.5122 5.09063 21.199 5.11063 20.8668C5.36063 18.0291 8.39063 15.7986 12.0006 15.7986C15.6106 15.7986 18.6306 18.0196 18.8906 20.8668C18.9206 21.2085 18.7006 21.5122 18.3506 21.6071C17.4206 21.8729 16.3206 21.9962 15.0006 21.9962ZM6.72063 20.3923C7.38063 20.5157 8.13063 20.5726 9.00063 20.5726H15.0006C15.8706 20.5726 16.6206 20.5157 17.2806 20.3923C16.7506 18.5701 14.5606 17.2223 12.0006 17.2223C9.44063 17.2223 7.25063 18.5701 6.72063 20.3923Z" fill="#181818"/>
<path d="M15 2.30304H9C4 2.30304 2 4.2012 2 8.94661V14.6411C2 18.2286 3.14 20.1932 5.86 20.924C6.08 18.4564 8.75 16.5108 12 16.5108C15.25 16.5108 17.92 18.4564 18.14 20.924C20.86 20.1932 22 18.2286 22 14.6411V8.94661C22 4.2012 20 2.30304 15 2.30304ZM12 13.8534C10.02 13.8534 8.42 12.3253 8.42 10.4462C8.42 8.567 10.02 7.04845 12 7.04845C13.98 7.04845 15.58 8.567 15.58 10.4462C15.58 12.3253 13.98 13.8534 12 13.8534Z" stroke="#181818" stroke-width="1.5" stroke-linecap="round" stroke-linejoin="round"/>
<path d="M11.9999 14.5651C9.60992 14.5651 7.66992 12.7144 7.66992 10.4461C7.66992 8.17785 9.60992 6.33661 11.9999 6.33661C14.3899 6.33661 16.3299 8.17785 16.3299 10.4461C16.3299 12.7144 14.3899 14.5651 11.9999 14.5651ZM11.9999 7.76023C10.4399 7.76023 9.16992 8.96558 9.16992 10.4461C9.16992 11.9362 10.4399 13.1415 11.9999 13.1415C13.5599 13.1415 14.8299 11.9362 14.8299 10.4461C14.8299 8.96558 13.5599 7.76023 11.9999 7.76023Z" fill="#181818"/>
</svg>
