<svg version="1.1" id="Layer_1" xmlns="http://www.w3.org/2000/svg" xmlns:xlink="http://www.w3.org/1999/xlink" x="0px" y="0px"
	 width="100%" viewBox="0 0 1080 1080" enable-background="new 0 0 1080 1080" xml:space="preserve">
<path fill="#ffffff" opacity="0.000000" stroke="none" 
	d="
M606.000000,1081.000000 
	C404.023254,1081.000000 202.546509,1081.000000 1.034878,1081.000000 
	C1.034878,721.064819 1.034878,361.129578 1.034878,1.097191 
	C360.893646,1.097191 720.787354,1.097191 1080.840576,1.097191 
	C1080.840576,360.999939 1080.840576,720.999939 1080.840576,1081.000000 
	C922.795837,1081.000000 764.647888,1081.000000 606.000000,1081.000000 
M880.696838,863.197571 
	C1034.172852,699.986816 1052.329956,453.261688 923.448486,272.038879 
	C789.751770,84.045128 562.700439,37.931084 389.372406,99.651047 
	C389.372406,251.390991 389.372406,403.117401 389.372406,555.000000 
	C391.736603,555.000000 393.729950,555.000000 395.723297,555.000000 
	C455.056458,555.000488 514.389832,554.922791 573.722717,555.039001 
	C598.346191,555.087280 617.930603,575.098633 617.995178,599.812317 
	C618.060486,624.807434 598.458740,644.938599 573.601257,644.965820 
	C493.101593,645.053955 412.601746,645.042297 332.102020,644.966675 
	C312.633209,644.948364 295.254211,632.043579 290.114868,613.276123 
	C288.120209,605.992065 287.134460,598.200317 287.125610,590.638184 
	C286.955750,445.638763 287.000031,300.639130 287.000000,155.639542 
	C287.000000,153.784454 287.000000,151.929352 287.000000,149.466095 
	C285.357788,150.456604 284.629913,150.847351 283.952057,151.311279 
	C169.343124,229.751953 100.158897,337.126312 78.954941,474.652863 
	C68.862221,540.113220 73.567352,604.894043 91.543861,668.609924 
	C143.677444,853.392151 303.327179,987.230347 495.117401,1006.728027 
	C559.228638,1013.245667 622.117249,1006.487732 683.587524,986.992676 
	C694.005127,983.688721 694.000061,983.674377 694.000061,972.842590 
	C693.999939,815.343018 694.000000,657.843506 694.000000,500.343964 
	C694.000000,498.264038 694.000000,496.184143 694.000000,494.000000 
	C691.224731,494.000000 689.227234,494.000000 687.229797,494.000000 
	C629.063293,494.000000 570.896790,494.007721 512.730286,493.977844 
	C509.741943,493.976318 506.703766,493.941742 503.773468,493.433807 
	C479.869446,489.290283 463.959320,468.611084 466.128845,444.663544 
	C468.236206,421.402252 487.508270,404.024200 511.414978,404.013580 
	C591.081421,403.978180 670.747864,403.996063 750.414307,404.018738 
	C752.905518,404.019440 755.435242,404.067139 757.881653,404.480194 
	C780.977478,408.379944 795.990295,426.505707 795.992249,450.503418 
	C796.004944,609.336304 795.999451,768.169189 795.999939,927.002075 
	C796.000000,928.925049 796.000000,930.848022 796.000000,933.674927 
	C827.343628,913.247131 855.079224,890.056824 880.696838,863.197571 
z"/>
<path fill="#15AABF" opacity="1.000000" stroke="none" 
	d="
M880.452515,863.452515 
	C855.079224,890.056824 827.343628,913.247131 796.000000,933.674927 
	C796.000000,930.848022 796.000000,928.925049 795.999939,927.002075 
	C795.999451,768.169189 796.004944,609.336304 795.992249,450.503418 
	C795.990295,426.505707 780.977478,408.379944 757.881653,404.480194 
	C755.435242,404.067139 752.905518,404.019440 750.414307,404.018738 
	C670.747864,403.996063 591.081421,403.978180 511.414978,404.013580 
	C487.508270,404.024200 468.236206,421.402252 466.128845,444.663544 
	C463.959320,468.611084 479.869446,489.290283 503.773468,493.433807 
	C506.703766,493.941742 509.741943,493.976318 512.730286,493.977844 
	C570.896790,494.007721 629.063293,494.000000 687.229797,494.000000 
	C689.227234,494.000000 691.224731,494.000000 694.000000,494.000000 
	C694.000000,496.184143 694.000000,498.264038 694.000000,500.343964 
	C694.000000,657.843506 693.999939,815.343018 694.000061,972.842590 
	C694.000061,983.674377 694.005127,983.688721 683.587524,986.992676 
	C622.117249,1006.487732 559.228638,1013.245667 495.117401,1006.728027 
	C303.327179,987.230347 143.677444,853.392151 91.543861,668.609924 
	C73.567352,604.894043 68.862221,540.113220 78.954941,474.652863 
	C100.158897,337.126312 169.343124,229.751953 283.952057,151.311279 
	C284.629913,150.847351 285.357788,150.456604 287.000000,149.466095 
	C287.000000,151.929352 287.000000,153.784454 287.000000,155.639542 
	C287.000031,300.639130 286.955750,445.638763 287.125610,590.638184 
	C287.134460,598.200317 288.120209,605.992065 290.114868,613.276123 
	C295.254211,632.043579 312.633209,644.948364 332.102020,644.966675 
	C412.601746,645.042297 493.101593,645.053955 573.601257,644.965820 
	C598.458740,644.938599 618.060486,624.807434 617.995178,599.812317 
	C617.930603,575.098633 598.346191,555.087280 573.722717,555.039001 
	C514.389832,554.922791 455.056458,555.000488 395.723297,555.000000 
	C393.729950,555.000000 391.736603,555.000000 389.372406,555.000000 
	C389.372406,403.117401 389.372406,251.390991 389.372406,99.651047 
	C562.700439,37.931084 789.751770,84.045128 923.448486,272.038879 
	C1052.329956,453.261688 1034.172852,699.986816 880.452515,863.452515 
z"/>
</svg>